<?xml version="1.0" encoding="UTF-8"?>
<svg version="1.1" xmlns="http://www.w3.org/2000/svg" width="512" height="512">
<path d="M0 0 C3 1 3 1 5.3125 4.0625 C10.89694507 10.78299639 19.65843389 14.27822786 27.3046875 18.2265625 C46.53881018 28.17813032 63.19739132 39.92542329 70.3125 61.375 C81.90429873 103.11542546 64.19708396 148.32774571 49 187 C49.35191406 186.39639648 49.70382812 185.79279297 50.06640625 185.17089844 C88.96888982 118.56436162 88.96888982 118.56436162 125 107 C144.15891227 102.08505028 162.36136996 109.91429427 179.8125 116.9765625 C185.4656265 119.22479754 190.75653746 121.31518346 196.9375 121.125 C198.09572266 121.09792969 198.09572266 121.09792969 199.27734375 121.0703125 C199.84582031 121.04710938 200.41429687 121.02390625 201 121 C200.76023437 121.82636963 200.76023437 121.82636963 200.515625 122.66943359 C198.17849069 133.23301508 201.16453015 144.03531486 203.43652344 154.35839844 C207.05034159 170.95246139 208.00381531 188.03612129 199.3125 203.3125 C198.24629459 204.90114606 197.13980246 206.46330204 196 208 C195.34 208.90234375 194.68 209.8046875 194 210.734375 C172.19946762 238.91934901 134.13740397 250.38531771 102 262 C102.83023682 261.88406494 103.66047363 261.76812988 104.51586914 261.64868164 C107.67448422 261.21022248 110.83371907 260.77659288 113.9934082 260.34594727 C116.00195765 260.07079377 118.00978173 259.79036137 120.01757812 259.50976562 C145.96597272 255.98590957 176.03316905 253.35446834 198.6796875 269.20703125 C212.37425303 279.78919552 217.27784774 294.63546764 222.32348633 310.60595703 C224.67408766 317.87726679 227.29789161 323.94279105 232 330 C231.46842285 330.29076416 230.9368457 330.58152832 230.38916016 330.88110352 C222.58085013 335.24742007 217.65983871 341.77051708 212.33544922 348.81616211 C202.13007127 362.31568104 191.2980173 372.89298983 174 376 C154.99217169 377.83350196 138.27120872 373.71073724 121 366 C120.29182129 365.6896582 119.58364258 365.37931641 118.85400391 365.05957031 C105.28874058 359.07063514 92.63968589 351.7289425 80 344 C83.54907924 347.61171005 87.21239627 351.07595143 90.92578125 354.51806641 C126.28465813 387.38831896 126.28465813 387.38831896 128.17700195 409.02368164 C128.46418228 419.03609217 128.66610002 427.87067388 124 437 C123.56429688 437.87398438 123.12859375 438.74796875 122.6796875 439.6484375 C119.359885 445.97964554 115.55953665 452.02042086 111.734375 458.0546875 C109.02314559 462.65889239 107.73720681 466.71668452 107 472 C106.18104248 471.67636475 105.36208496 471.35272949 104.51831055 471.01928711 C100.52193447 469.86149999 96.82773074 469.70326137 92.70703125 469.69140625 C91.09049142 469.6662314 89.47395504 469.64083361 87.85742188 469.61523438 C85.34107489 469.5866423 82.82478825 469.56259225 80.30834961 469.54370117 C62.77751086 469.38679094 49.56964646 466.87325087 36.35546875 454.51953125 C32.51634613 450.41300706 29.71878297 445.89940067 27 441 C26.55011719 440.20980469 26.10023438 439.41960937 25.63671875 438.60546875 C15.94573635 420.51363474 12.56963789 398.98372603 9 379 C8.87309922 395.17240629 9.01562152 411.32155607 9.4375 427.48828125 C9.45947449 428.33170956 9.48144897 429.17513786 9.50408936 430.0441246 C9.66416521 436.13372821 9.8315989 442.2231219 10 448.3125 C10.1916109 455.26682012 10.38017791 462.22121098 10.5625 469.17578125 C10.58431335 470.00434757 10.60612671 470.83291389 10.62860107 471.68658829 C10.97762588 485.13032027 11.08830251 498.55042434 11 512 C4.4 512 -2.2 512 -9 512 C-9.09380871 497.7117614 -8.93848918 483.45748973 -8.5625 469.17578125 C-8.54052551 468.33757717 -8.51855103 467.49937309 -8.49591064 466.63576889 C-8.31167126 459.64946815 -8.12032271 452.6633652 -7.92712402 445.67730713 C-7.75957456 439.61440996 -7.59546804 433.55143613 -7.4375 427.48828125 C-7.41568665 426.65237583 -7.39387329 425.81647041 -7.37139893 424.95523453 C-6.97895791 409.63398602 -6.87973925 394.32619168 -7 379 C-7.17465286 379.90976593 -7.34930573 380.81953186 -7.5292511 381.75686646 C-19.82881319 445.70655644 -19.82881319 445.70655644 -43.5 462.4375 C-51.86511264 467.61451027 -60.66372627 469.11358545 -70.37109375 469.24609375 C-72.01367735 469.27902504 -73.65625534 469.3122368 -75.29882812 469.34570312 C-77.87048609 469.39309451 -80.44212017 469.43757049 -83.01391602 469.47680664 C-85.50820528 469.51667898 -88.00205188 469.56817249 -90.49609375 469.62109375 C-91.2587706 469.6295079 -92.02144745 469.63792206 -92.80723572 469.64659119 C-97.23343291 469.74830782 -100.82619646 470.34921963 -105 472 C-105.165 470.80375 -105.33 469.6075 -105.5 468.375 C-107.07574178 461.22788549 -111.21900371 455.16765966 -115 449 C-124.19228908 433.99985555 -128.96727748 420.86578261 -125.1640625 403.09375 C-118.0797481 381.98344401 -101.47681703 364.65752799 -84.75390625 350.53515625 C-82.74353319 348.77552014 -80.881907 346.89551759 -79 345 C-80.05405029 345.60303955 -80.05405029 345.60303955 -81.12939453 346.21826172 C-142.97823227 381.46134028 -142.97823227 381.46134028 -176.7578125 375.31640625 C-179.65421015 374.40513754 -182.28005066 373.34521526 -185 372 C-185.84175781 371.59910156 -186.68351562 371.19820313 -187.55078125 370.78515625 C-198.98460918 364.65036521 -206.8611114 354.33057868 -214.3215332 344.0144043 C-218.80879205 337.89722828 -223.94545601 333.5078772 -230 329 C-229.62488281 328.58854736 -229.24976563 328.17709473 -228.86328125 327.75317383 C-223.6033736 321.44906852 -221.43066996 314.42028969 -219 306.6875 C-213.6095305 289.75968691 -207.03284757 274.92068575 -191.1328125 265.53125 C-173.28339177 256.80684486 -153.64174525 256.04005143 -134.1875 257.8125 C-133.21353271 257.89870605 -132.23956543 257.98491211 -131.23608398 258.07373047 C-120.77894943 259.04262114 -110.38801196 260.47023227 -100 262 C-100.78310547 261.72438232 -101.56621094 261.44876465 -102.37304688 261.16479492 C-159.29361565 241.01581075 -159.29361565 241.01581075 -181 222 C-181.82113281 221.37996094 -182.64226562 220.75992188 -183.48828125 220.12109375 C-194.90823776 210.47718024 -201.73334906 196.55287286 -204 182 C-204.71409328 171.77673507 -203.17790095 162.2458234 -201 152.3125 C-198.70318356 141.75202576 -196.63193286 131.73865931 -199 121 C-197.69289062 121.05414063 -196.38578125 121.10828125 -195.0390625 121.1640625 C-190.06365047 121.15822966 -186.02055918 120.05936385 -181.375 118.375 C-180.6001123 118.10647217 -179.82522461 117.83794434 -179.02685547 117.5612793 C-173.99660919 115.79343645 -169.05523667 113.8395749 -164.125 111.8125 C-149.04198607 105.72497001 -132.59134481 102.73681021 -117 109 C-108.01499579 112.86825922 -100.40061966 117.53447669 -93 124 C-92.38898438 124.47953125 -91.77796875 124.9590625 -91.1484375 125.453125 C-85.57066965 129.88477617 -81.37926962 135.42310476 -77 141 C-75.84177734 142.41732422 -75.84177734 142.41732422 -74.66015625 143.86328125 C-67.40582119 152.92826072 -61.45707008 162.70908886 -55.44628906 172.62744141 C-52.70151588 177.13009262 -49.84895643 181.56279301 -47 186 C-47.235979 185.38294189 -47.47195801 184.76588379 -47.71508789 184.13012695 C-81.71035253 94.99449365 -81.71035253 94.99449365 -66 55 C-58.14025113 37.76139113 -44.33919463 28.49530945 -28.12109375 19.8671875 C-26.53603027 19.02015259 -26.53603027 19.02015259 -24.91894531 18.15600586 C-22.81146281 17.03523151 -20.69774766 15.92607616 -18.57714844 14.83032227 C-11.31093175 10.9969499 -4.62865529 6.94298293 0 0 Z M-46 189 C-45 191 -45 191 -45 191 Z M47 189 C48 191 48 191 48 191 Z M-6 366 C-5 368 -5 368 -5 368 Z M7 366 C8 368 8 368 8 368 Z " fill="#77B330" transform="translate(255,0)"/>
<path d="M0 0 C9.47915767 10.40011848 13.48353718 23.40009691 17.63598633 36.54345703 C19.98658766 43.81476679 22.61039161 49.88029105 27.3125 55.9375 C26.51513428 56.37364624 26.51513428 56.37364624 25.70166016 56.81860352 C17.89335013 61.18492007 12.97233871 67.70801708 7.64794922 74.75366211 C-2.55742873 88.25318104 -13.3894827 98.83048983 -30.6875 101.9375 C-49.69532831 103.77100196 -66.41629128 99.64823724 -83.6875 91.9375 C-84.39567871 91.6271582 -85.10385742 91.31681641 -85.83349609 90.99707031 C-99.39875942 85.00813514 -112.04781411 77.6664425 -124.6875 69.9375 C-121.13842076 73.54921005 -117.47510373 77.01345143 -113.76171875 80.45556641 C-78.40284187 113.32581896 -78.40284187 113.32581896 -76.51049805 134.96118164 C-76.22331772 144.97359217 -76.02139998 153.80817388 -80.6875 162.9375 C-81.12320313 163.81148437 -81.55890625 164.68546875 -82.0078125 165.5859375 C-85.327615 171.91714554 -89.12796335 177.95792086 -92.953125 183.9921875 C-95.66435441 188.59639239 -96.95029319 192.65418452 -97.6875 197.9375 C-100.26492161 194.67706166 -102.31670135 191.24057583 -104.375 187.6328125 C-104.89066528 186.73041336 -104.89066528 186.73041336 -105.41674805 185.80978394 C-106.14077346 184.541404 -106.86348692 183.27227436 -107.58496094 182.00244141 C-108.68098319 180.07396647 -109.78155036 178.14814274 -110.8828125 176.22265625 C-113.94543477 170.85168239 -116.96444396 165.49148699 -119.6875 159.9375 C-115.36818613 160.55361835 -111.43541225 161.57988578 -107.3125 163 C-106.25289063 163.36222656 -105.19328125 163.72445312 -104.1015625 164.09765625 C-103.30492187 164.37480469 -102.50828125 164.65195312 -101.6875 164.9375 C-102.28175781 164.70264893 -102.87601562 164.46779785 -103.48828125 164.22583008 C-116.38160375 158.99606387 -125.03318703 155.22091584 -130.6875 141.9375 C-131.51419555 140.32990253 -132.34638529 138.72510037 -133.1875 137.125 C-133.6825 136.073125 -134.1775 135.02125 -134.6875 133.9375 C-123.8195849 136.60993814 -113.27648853 140.34393851 -102.6875 143.9375 C-103.71520508 143.55754883 -104.74291016 143.17759766 -105.80175781 142.78613281 C-140.70368458 129.66494116 -140.70368458 129.66494116 -148.24707031 114.41503906 C-150.6875 108.83974848 -150.6875 108.83974848 -150.6875 105.9375 C-140.97053262 108.67843683 -131.54273985 112.17147077 -122.0625 115.625 C-120.3737896 116.2378829 -118.68498824 116.8505152 -116.99609375 117.46289062 C-112.8921743 118.95153906 -108.78950206 120.4435767 -104.6875 121.9375 C-105.47929153 121.58097099 -105.47929153 121.58097099 -106.28707886 121.21723938 C-109.42899824 119.80235843 -112.57083727 118.38731568 -115.71142578 116.96948242 C-120.59456822 114.76736157 -125.4844237 112.58177677 -130.38694763 110.42320251 C-133.0228048 109.26194024 -135.65631424 108.09540464 -138.28970337 106.92855835 C-139.59392277 106.35235469 -140.8992413 105.77863233 -142.20565796 105.20742798 C-144.05786499 104.39724027 -145.90597022 103.57769507 -147.75390625 102.7578125 C-149.3618103 102.05035889 -149.3618103 102.05035889 -151.00219727 101.32861328 C-155.23556624 99.13552878 -157.05348313 96.57830605 -159.38671875 92.48828125 C-159.87333984 91.64072266 -160.35996094 90.79316406 -160.86132812 89.91992188 C-161.36083984 89.03884766 -161.86035156 88.15777344 -162.375 87.25 C-162.88611328 86.35732422 -163.39722656 85.46464844 -163.92382812 84.54492188 C-165.18268858 82.34485735 -166.43705596 80.14235553 -167.6875 77.9375 C-163.89026547 76.67175516 -162.63588162 77.43378498 -158.92578125 78.80859375 C-157.80751953 79.21787109 -156.68925781 79.62714844 -155.53710938 80.04882812 C-154.36986328 80.48646484 -153.20261719 80.92410156 -152 81.375 C-150.82115234 81.80876953 -149.64230469 82.24253906 -148.42773438 82.68945312 C-145.51119045 83.76396931 -142.5980759 84.8469431 -139.6875 85.9375 C-141.19382779 85.22545712 -142.70052723 84.51419329 -144.20874023 83.80615234 C-145.54626233 83.17674959 -146.88166923 82.54283522 -148.21508789 81.90478516 C-151.75410835 80.22964058 -155.27528931 78.68570412 -158.96484375 77.37109375 C-169.64578355 73.45217883 -173.75854732 69.24938785 -178.6875 58.9375 C-179.50823929 57.53422449 -180.33873769 56.13650556 -181.1875 54.75 C-182.6875 51.9375 -182.6875 51.9375 -182.6875 49.9375 C-182.04683594 50.13085938 -181.40617187 50.32421875 -180.74609375 50.5234375 C-179.88113281 50.78382813 -179.01617187 51.04421875 -178.125 51.3125 C-177.27808594 51.56773437 -176.43117188 51.82296875 -175.55859375 52.0859375 C-172.27477214 53.05991452 -168.98213619 54.00082964 -165.6875 54.9375 C-166.2451001 54.77072754 -166.8027002 54.60395508 -167.37719727 54.43212891 C-184.30816015 48.96065389 -191.32396064 39.96488148 -199.14453125 24.76171875 C-201.04543314 20.92184121 -202.0073665 18.23628961 -201.6875 13.9375 C-200.65568604 13.69104736 -199.62387207 13.44459473 -198.56079102 13.19067383 C-194.64386949 12.25385052 -190.72837362 11.31117669 -186.81323242 10.36694336 C-185.13521627 9.96306234 -183.45684317 9.56066074 -181.77807617 9.15991211 C-171.55886388 6.71918325 -161.43665717 4.08914012 -151.37768555 1.05126953 C-146.75869708 -0.34283072 -142.12266377 -1.66826116 -137.4765625 -2.96875 C-134.7233518 -3.76349123 -132.00105376 -4.59497828 -129.2734375 -5.46875 C-91.46873406 -17.30323268 -32.58995103 -29.00944072 0 0 Z " fill="#78B331" transform="translate(459.6875,274.0625)"/>
<path d="M0 0 C1.65 1.65 3.3 3.3 5 5 C12.39776949 11.56080861 20.77266682 15.6806341 29.5859375 20.01757812 C47.75493085 29.15773961 62.74358671 41.57201232 69.3125 61.375 C80.90429873 103.11542546 63.19708396 148.32774571 48 187 C48.52787109 186.09459473 48.52787109 186.09459473 49.06640625 185.17089844 C87.96888982 118.56436162 87.96888982 118.56436162 124 107 C142.04776744 102.37009888 159.05385255 109.09721149 175.54956055 115.77099609 C182.95262344 118.72135346 190.09585663 120.80821408 198 122 C190.36720584 129.71486722 182.30038486 136.87160514 173.85546875 143.68359375 C171.77936044 145.36776916 169.72133109 147.06467212 167.67578125 148.78515625 C167.125271 149.24792969 166.57476074 149.71070313 166.00756836 150.1875 C164.44923854 151.49997399 162.89254658 152.8143919 161.3359375 154.12890625 C159 156 159 156 158 156 C158.46367916 144.80214835 160.78431688 133.9567763 163 123 C162.70867187 124.22332031 162.41734375 125.44664063 162.1171875 126.70703125 C161.03150839 131.21250937 159.88428433 135.70038149 158.71777344 140.18554688 C158.2556463 141.99758826 157.80965659 143.81386136 157.38378906 145.63476562 C154.30931463 158.75050386 150.15316297 165.43807419 139 173 C137.39104961 174.22289821 135.78595055 175.45090902 134.1875 176.6875 C133.135625 177.450625 132.08375 178.21375 131 179 C129.85776805 175.53574426 130.12234319 172.88281854 130.671875 169.30078125 C130.84041992 168.18098877 131.00896484 167.06119629 131.18261719 165.9074707 C131.36985352 164.72113037 131.55708984 163.53479004 131.75 162.3125 C132.0269873 160.5030188 132.0269873 160.5030188 132.30957031 158.65698242 C133.73873186 149.41371352 135.28809811 140.19498818 137 131 C136.81207886 131.85827393 136.81207886 131.85827393 136.62036133 132.73388672 C134.26364146 143.4411972 131.89294752 154.13007072 128.78393555 164.64868164 C127.77085846 168.08943026 126.88128385 171.44627076 126.32421875 174.9921875 C124.27687463 186.17823524 118.57785972 191.08593027 109.82910156 197.61035156 C108.04114907 198.96873725 106.34609901 200.39835468 104.6484375 201.8671875 C102 204 102 204 100 204 C99.76961094 197.9995992 100.65210607 192.46805804 101.75 186.578125 C102.01635254 185.10542145 102.01635254 185.10542145 102.28808594 183.60296631 C102.85297374 180.48423215 103.42599343 177.36706758 104 174.25 C104.57278078 171.11844601 105.14380415 167.98659178 105.71191406 164.85418701 C106.06503383 162.90934467 106.42105775 160.96502692 106.78027344 159.02130127 C106.94043945 158.14318787 107.10060547 157.26507446 107.265625 156.36035156 C107.40774414 155.58870667 107.54986328 154.81706177 107.69628906 154.02203369 C108.07426729 151.84633227 108.07426729 151.84633227 108 149 C107.8209613 149.75310959 107.64192261 150.50621918 107.4574585 151.28215027 C105.7648026 158.39171377 104.05947954 165.49806228 102.33997726 172.60117626 C101.45648403 176.25275323 100.57787248 179.90536037 99.71044922 183.56079102 C98.87257732 187.09088368 98.02184223 190.6176499 97.16223907 194.14251137 C96.83713535 195.48535797 96.51661965 196.8293242 96.20085907 198.17439842 C95.75655444 200.06345468 95.29414305 201.94822412 94.83105469 203.83276367 C94.57346375 204.90531906 94.3158728 205.97787445 94.05047607 207.08293152 C92.08224969 212.54850213 88.25684576 215.82208867 83.8125 219.375 C82.85214844 220.14457031 81.89179688 220.91414062 80.90234375 221.70703125 C79.94457031 222.46371094 78.98679687 223.22039062 78 224 C77.11441406 224.70511719 76.22882813 225.41023437 75.31640625 226.13671875 C69.15098884 231 69.15098884 231 68 231 C67.87114847 225.50233475 68.26951243 220.4082971 69.3125 215 C69.5122644 213.91827515 69.5122644 213.91827515 69.71606445 212.81469727 C70.13736863 210.54182665 70.56849469 208.27095354 71 206 C71.2897178 204.44673667 71.57878625 202.89335207 71.8671875 201.33984375 C72.57063477 197.55845407 73.28288858 193.77882116 74 190 C72.13442295 197.33618982 70.27036157 204.66810298 68.64593506 212.06210327 C68.06226879 214.69900215 67.44768365 217.32825996 66.82958984 219.95727539 C66.52432027 221.28705064 66.23216283 222.6198984 65.95263672 223.95532227 C63.80678127 234.12411487 60.47805403 239.7921598 52 246 C50.88797885 246.94000491 49.78228544 247.88763276 48.6875 248.84765625 C47.800625 249.57855469 46.91375 250.30945313 46 251.0625 C45.0925 251.81660156 44.185 252.57070312 43.25 253.34765625 C41 255 41 255 39 255 C39.54479018 246.24034738 40.54107999 237.65437017 42 229 C41.80422363 229.80667114 41.80422363 229.80667114 41.60449219 230.62963867 C40.31624194 235.91631539 38.98509472 241.19054823 37.63183594 246.4609375 C37.09974512 248.59916954 36.6251591 250.75159299 36.1640625 252.90625 C33.95468638 262.09375467 29.48583404 265.6210134 22 271 C19.23809087 273.28494962 16.55047077 275.6565311 13.85571289 278.02001953 C10.80304215 280.63967689 7.65053998 282.94998206 4.29150391 285.16723633 C3.48629303 285.69996658 2.68108215 286.23269684 1.85147095 286.78157043 C1.24048553 287.18365219 0.62950012 287.58573395 0 288 C-0.20455725 281.52676034 -0.34364378 275.05436724 -0.43945312 268.57861328 C-0.47943267 266.38070537 -0.53383733 264.18300677 -0.60351562 261.98583984 C-1.30436608 239.30095953 -1.30436608 239.30095953 8 229 C9.08653489 227.45938145 10.15113972 225.90293323 11.1875 224.328125 C12.12410034 222.96812998 13.06157362 221.60873565 14 220.25 C14.48855469 219.54101562 14.97710937 218.83203125 15.48046875 218.1015625 C16.65283476 216.4004824 17.82629019 214.70015318 19 213 C15.71439532 216.23932855 12.56239028 219.5494194 9.5 223 C6.43697708 226.45129343 3.27222643 229.74675086 0 233 C-2.51065945 198.49254571 -2.51065945 198.49254571 7.4440918 186.96606445 C8.65611615 185.6420357 9.8850846 184.3333215 11.13037109 183.04052734 C14.45710719 179.40970202 17.18020084 175.34043337 20 171.3125 C21.0392765 169.86936945 22.08082836 168.4278739 23.125 166.98828125 C25.76243583 163.33433369 28.38391094 159.66925726 31 156 C25.18926971 162.27170681 19.61225827 168.63211543 14.23828125 175.28515625 C9.74002108 180.74116117 5.01749187 186.016278 0 191 C-2.50947624 154.27552291 -2.50947624 154.27552291 7.46166992 142.84033203 C8.6780637 141.52972084 9.91279647 140.23588448 11.16552734 138.95996094 C14.32274714 135.5867695 16.86245185 131.78304379 19.5 128 C20.56879327 126.51359229 21.64041573 125.02921484 22.71484375 123.546875 C23.51704346 122.43602539 23.51704346 122.43602539 24.33544922 121.30273438 C26.07722485 118.89316738 27.82158843 116.48548984 29.56640625 114.078125 C30.15164063 113.26988281 30.736875 112.46164063 31.33984375 111.62890625 C32.45481628 110.08918228 33.57064563 108.55007825 34.6875 107.01171875 C37.54675182 103.06114944 40.32596636 99.07838225 43 95 C38.35924678 100.05765303 33.81749665 105.16214258 29.5 110.5 C26.5918662 114.0947765 23.61458668 117.58260628 20.5 121 C16.53234158 125.35542259 12.79275545 129.8624565 9.08203125 134.4375 C6.44580198 137.68208987 3.77755365 140.87525214 1 144 C0.67 144 0.34 144 0 144 C-0.25050582 139.25387822 -0.4301183 134.51173468 -0.54931641 129.76049805 C-0.59907367 128.15109133 -0.66691555 126.5421238 -0.75439453 124.93432617 C-1.28909927 114.84098798 -0.72546903 108.09234624 6.05285645 100.28421021 C7.35835811 98.84679787 8.67877987 97.42297792 10 96 C11.09052348 94.54723333 12.15576661 93.07467151 13.1796875 91.57421875 C13.62795898 90.93025146 14.07623047 90.28628418 14.53808594 89.62280273 C14.97926758 88.98415283 15.42044922 88.34550293 15.875 87.6875 C21.72243005 79.30959749 27.82329958 71.13703619 34 63 C33.67 63 33.34 63 33 63 C31.19377837 65.01781635 29.43297553 67.05544241 27.6875 69.125 C26.59258788 70.41418138 25.49753172 71.70324044 24.40234375 72.9921875 C23.8388623 73.65702148 23.27538086 74.32185547 22.69482422 75.00683594 C21.07657061 76.90995066 19.44895669 78.80445675 17.81640625 80.6953125 C12.54945456 86.79878983 7.3722358 92.93471912 2.42578125 99.3046875 C1.95527344 99.86414063 1.48476563 100.42359375 1 101 C0.67 101 0.34 101 0 101 C-0.19993688 96.35954185 -0.34391187 91.72166375 -0.43945312 87.07788086 C-0.47933014 85.50354276 -0.5336574 83.92949404 -0.60351562 82.35620117 C-1.09739888 70.93515087 0.13947992 64.80305145 8 56 C9.23541457 54.27559395 10.4447527 52.53215477 11.625 50.76953125 C12.18574219 49.94775391 12.74648438 49.12597656 13.32421875 48.27929688 C14.15373047 47.05823242 14.15373047 47.05823242 15 45.8125 C15.58394531 44.95591797 16.16789062 44.09933594 16.76953125 43.21679688 C18.1812112 41.14556154 19.59135545 39.07330032 21 37 C20.67 37 20.34 37 20 37 C18.08740791 39.12074486 16.22188343 41.26054827 14.375 43.4375 C13.83319092 44.07187988 13.29138184 44.70625977 12.7331543 45.35986328 C9.08970318 49.64889978 5.57650269 54.01441246 2.20703125 58.5234375 C1.80871094 59.01070312 1.41039062 59.49796875 1 60 C0.67 60 0.34 60 0 60 C0 40.2 0 20.4 0 0 Z M46 189 C47 191 47 191 47 191 Z " fill="#95C745" transform="translate(256,0)"/>
<path d="M0 0 C1.08921753 0.0163147 1.08921753 0.0163147 2.20043945 0.03295898 C18.08041211 0.50038015 31.68737262 8.10954575 43.4375 18.375 C44.04851562 18.85453125 44.65953125 19.3340625 45.2890625 19.828125 C50.86683035 24.25977617 55.05823038 29.79810476 59.4375 35.375 C60.20964844 36.31988281 60.98179687 37.26476562 61.77734375 38.23828125 C68.95060977 47.20195726 74.92933454 56.8200868 80.81591797 66.66503906 C81.85741798 68.40557657 82.9053869 70.14226856 83.96142578 71.87402344 C92.89954504 86.55365316 99.88705444 101.96526208 106.79736328 117.66162109 C109.13321665 122.96120876 111.52672897 128.23412149 113.9375 133.5 C114.36619385 134.4374707 114.7948877 135.37494141 115.23657227 136.34082031 C119.61054167 145.84741852 124.17150623 155.26388353 128.75585938 164.67041016 C131.44212657 170.19226671 134.10202525 175.69479178 136.4375 181.375 C132.29342214 179.67460442 129.19350178 176.73366856 125.875 173.8125 C124.62851994 172.7281131 123.38111244 171.64479142 122.1328125 170.5625 C121.2032373 169.75619141 121.2032373 169.75619141 120.25488281 168.93359375 C116.77893029 165.95260491 113.21119538 163.08635595 109.64453125 160.21484375 C108.91621094 159.60769531 108.18789062 159.00054687 107.4375 158.375 C106.94362793 157.9924707 106.44975586 157.60994141 105.94091797 157.21582031 C103.72383808 154.50117557 103.05726579 151.40850296 102.17578125 148.08203125 C101.98026169 147.37600266 101.78474213 146.66997406 101.58329773 145.94255066 C100.96274824 143.69333682 100.35622799 141.44061131 99.75 139.1875 C99.33099836 137.65925261 98.91108687 136.13125436 98.49023438 134.60351562 C97.46208741 130.86348306 96.44650329 127.12024048 95.4375 123.375 C95.63448486 124.64670044 95.63448486 124.64670044 95.83544922 125.9440918 C96.77412705 132.02136272 97.70146378 138.09874389 98.5625 144.1875 C98.73007813 145.36957031 98.89765625 146.55164063 99.0703125 147.76953125 C99.19148437 148.62933594 99.31265625 149.48914063 99.4375 150.375 C96.68771564 149.09796757 94.47700753 147.72250772 92.1953125 145.73046875 C91.60363281 145.21806641 91.01195312 144.70566406 90.40234375 144.17773438 C89.49162109 143.37819336 89.49162109 143.37819336 88.5625 142.5625 C87.35710633 141.51393712 86.15138014 140.46575636 84.9453125 139.41796875 C84.41566895 138.95414795 83.88602539 138.49032715 83.34033203 138.01245117 C81.32673544 136.21278562 81.32673544 136.21278562 78.41894531 134.35791016 C74.13095537 130.76883946 73.43889819 125.8537817 72.2265625 120.60546875 C71.96869965 119.56932938 71.71083679 118.53319 71.44515991 117.46565247 C70.62989721 114.16934664 69.84588318 110.86651115 69.0625 107.5625 C68.51376628 105.32046142 67.96300725 103.0789175 67.41015625 100.83789062 C66.06242185 95.35577379 64.74023273 89.86797422 63.4375 84.375 C63.61925781 85.33277344 63.80101562 86.29054688 63.98828125 87.27734375 C64.66650153 90.86176749 65.33511604 94.44792949 66.00097656 98.03466797 C66.28941087 99.58105011 66.58038072 101.12696171 66.87402344 102.67236328 C67.29784551 104.9053578 67.7122461 107.1399364 68.125 109.375 C68.25624268 110.05554443 68.38748535 110.73608887 68.52270508 111.43725586 C69.38459821 116.1733326 69.54975506 120.58545095 69.4375 125.375 C64.93527561 122.9107143 61.27317132 119.80190828 57.4375 116.4375 C56.22983332 115.38595263 55.02151184 114.33515675 53.8125 113.28515625 C53.01972656 112.59111694 53.01972656 112.59111694 52.2109375 111.88305664 C50.35510673 110.25553884 50.35510673 110.25553884 47.84472656 108.57226562 C44.88646621 105.87202798 44.43508811 104.19013043 43.546875 100.30859375 C43.22340075 98.96075231 42.89982449 97.61293534 42.57617188 96.26513672 C42.31163208 95.11836456 42.31163208 95.11836456 42.04174805 93.94842529 C41.10054225 89.93993439 40.07885824 85.95218277 39.06872559 81.96060181 C37.59363944 76.12323596 36.14281434 70.27982006 34.6875 64.4375 C34.07953734 62.00062353 33.47146529 59.56377435 32.86328125 57.12695312 C31.3867598 51.20994936 29.91158808 45.29261042 28.4375 39.375 C29.23484336 44.20935351 30.03453007 49.04331215 30.83618164 53.87695312 C31.10729848 55.5135711 31.37782811 57.15028649 31.64770508 58.78710938 C32.04084612 61.17084723 32.43589339 63.5542584 32.83203125 65.9375 C33.02830612 67.12098022 33.02830612 67.12098022 33.22854614 68.32836914 C33.87626277 72.19078402 34.55498303 76.04298844 35.30615234 79.88671875 C35.5151844 80.95974243 35.5151844 80.95974243 35.72843933 82.05444336 C36.11023932 83.99071168 36.5014271 85.92512227 36.89331055 87.859375 C37.44490399 91.42283198 37.53355079 94.77525859 37.4375 98.375 C34.53908613 97.04470439 32.29139702 95.55218212 29.90625 93.44140625 C29.26042969 92.87486328 28.61460937 92.30832031 27.94921875 91.72460938 C27.28535156 91.13486328 26.62148437 90.54511719 25.9375 89.9375 C24.61564522 88.77093107 23.29275886 87.60552981 21.96875 86.44140625 C21.38673828 85.92521729 20.80472656 85.40902832 20.20507812 84.87719727 C18.46325959 83.31064536 18.46325959 83.31064536 16.35546875 82.14501953 C13.57009653 79.57450673 13.05293773 76.55552195 12.21875 72.98828125 C12.03413208 72.2536113 11.84951416 71.51894135 11.65930176 70.76200867 C11.07102757 68.40712369 10.50395241 66.04771839 9.9375 63.6875 C9.55738914 62.15004393 9.17589116 60.6129301 8.79296875 59.07617188 C7.84804093 55.2709261 6.91774219 51.46228418 5.99169922 47.65240479 C5.07488619 43.88488889 4.15007284 40.11942234 3.21875 36.35546875 C2.97118958 35.34206169 2.97118958 35.34206169 2.71862793 34.30818176 C1.83869947 30.75007384 1.83869947 30.75007384 0.4375 27.375 C0.60765625 28.14457031 0.7778125 28.91414063 0.953125 29.70703125 C2.83236902 38.6134484 4.31594182 47.56419266 5.6875 56.5625 C5.87473633 57.75657471 6.06197266 58.95064941 6.25488281 60.1809082 C6.5077002 61.87606567 6.5077002 61.87606567 6.765625 63.60546875 C6.9193457 64.62020264 7.07306641 65.63493652 7.23144531 66.68041992 C7.42662784 69.23282457 7.23434398 70.96472642 6.4375 73.375 C5.42042969 72.5396875 5.42042969 72.5396875 4.3828125 71.6875 C3.45210938 70.924375 2.52140625 70.16125 1.5625 69.375 C0.56089844 68.53710938 -0.44070312 67.69921875 -1.47265625 66.8359375 C-4.42553706 64.38718559 -4.42553706 64.38718559 -7.30859375 62.6640625 C-16.59294287 56.64407357 -18.00718144 47.50990787 -20.5625 37.375 C-21.05020773 35.55383354 -21.54109989 33.73351692 -22.03515625 31.9140625 C-23.24985525 27.41043438 -24.41808119 22.89697344 -25.5625 18.375 C-25.33530273 19.56258911 -25.33530273 19.56258911 -25.10351562 20.77416992 C-24.41845905 24.36939953 -23.74040933 27.96591618 -23.0625 31.5625 C-22.82402344 32.80837891 -22.58554688 34.05425781 -22.33984375 35.33789062 C-22.11425781 36.53994141 -21.88867188 37.74199219 -21.65625 38.98046875 C-21.44677734 40.08543701 -21.23730469 41.19040527 -21.02148438 42.32885742 C-20.60796794 45.0732428 -20.47240251 47.60675475 -20.5625 50.375 C-26.63595293 46.03681933 -32.2267828 41.2515169 -37.83984375 36.3449707 C-43.31750456 31.56363429 -48.90697645 26.94512004 -54.5625 22.375 C-56.5902544 20.73386025 -58.58906321 19.08175614 -60.5625 17.375 C-60.5625 17.045 -60.5625 16.715 -60.5625 16.375 C-59.85351562 16.27445313 -59.14453125 16.17390625 -58.4140625 16.0703125 C-48.47757797 14.31398473 -39.48041682 10.82614297 -30.15478516 7.04345703 C-20.36027141 3.11527128 -10.66057063 -0.22517802 0 0 Z " fill="#95C745" transform="translate(118.5625,105.625)"/>
<path d="M0 0 C4.58445639 1.36787999 9.20049357 2.61404632 13.81933594 3.85986328 C15.6136293 4.34675943 17.40789986 4.83373961 19.20214844 5.32080078 C20.11512695 5.56797852 21.02810547 5.81515625 21.96875 6.06982422 C25.12564619 6.92598547 28.28105812 7.78750678 31.43652344 8.64892578 C43.53819624 11.94207043 55.6431404 15.11553183 67.88183594 17.85986328 C65.27409692 20.4676023 63.4585582 20.5016589 59.84277344 21.14892578 C58.62203125 21.36806641 57.40128906 21.58720703 56.14355469 21.81298828 C54.8609375 22.03470703 53.57832031 22.25642578 52.25683594 22.48486328 C50.99742187 22.71431641 49.73800781 22.94376953 48.44042969 23.18017578 C44.92704074 23.79953501 41.41295667 24.35233876 37.88183594 24.85986328 C36.78887207 25.03727051 36.78887207 25.03727051 35.67382812 25.21826172 C28.75607165 25.83650648 22.38863432 21.79065282 16.38183594 18.85986328 C15.16636265 18.28032562 13.95022097 17.70218762 12.73339844 17.12548828 C9.7760234 15.71721445 6.82617791 14.29513456 3.88183594 12.85986328 C4.8834375 13.42189453 5.88503906 13.98392578 6.91699219 14.56298828 C10.80383012 16.78403853 14.56627304 19.17136527 18.31933594 21.60986328 C18.95548828 22.02107422 19.59164062 22.43228516 20.24707031 22.85595703 C21.79305549 23.85561662 23.33760071 24.85750255 24.88183594 25.85986328 C22.16868536 27.33388933 19.80723998 28.2070314 16.76464844 28.71142578 C15.9925 28.84033203 15.22035156 28.96923828 14.42480469 29.10205078 C13.626875 29.22837891 12.82894531 29.35470703 12.00683594 29.48486328 C10.82154297 29.68595703 10.82154297 29.68595703 9.61230469 29.89111328 C1.68598621 31.18359117 -3.59922654 31.0698765 -10.92285156 27.35986328 C-11.64683136 27.00472656 -12.37081116 26.64958984 -13.11672974 26.28369141 C-15.41450119 25.15341294 -17.70375645 24.00697294 -19.99316406 22.85986328 C-21.55512925 22.08794682 -23.11762427 21.31710147 -24.68066406 20.54736328 C-28.49941018 18.66387678 -32.31060646 16.76585983 -36.11816406 14.85986328 C-28.72480635 19.62356664 -21.25050691 24.18079601 -13.62402344 28.55908203 C-11.77334046 29.63324304 -9.94334959 30.74292677 -8.11816406 31.85986328 C-8.11816406 32.18986328 -8.11816406 32.51986328 -8.11816406 32.85986328 C-11.59481852 33.54008812 -15.07480854 34.20150339 -18.55566406 34.85986328 C-19.52955078 35.05064453 -20.5034375 35.24142578 -21.50683594 35.43798828 C-24.37098023 35.97441664 -27.23547888 36.43526783 -30.11816406 36.85986328 C-30.84028076 36.988125 -31.56239746 37.11638672 -32.30639648 37.24853516 C-40.41092465 38.0516263 -47.64401981 33.0243887 -54.55566406 29.35986328 C-57.40463984 27.88353151 -60.25979922 26.41930889 -63.11425781 24.95361328 C-63.80860931 24.59477051 -64.50296082 24.23592773 -65.21835327 23.86621094 C-73.02938932 19.84154467 -81.0253466 16.27683066 -89.11816406 12.85986328 C-88.52616211 13.19083008 -87.93416016 13.52179688 -87.32421875 13.86279297 C-73.44629635 21.63335992 -59.70499507 29.59050074 -46.11816406 37.85986328 C-47.11816406 39.85986328 -47.11816406 39.85986328 -49.22167969 40.64453125 C-67.72693923 45.31598091 -78.82991527 43.15076463 -95.13623047 33.57568359 C-99.86872242 30.85258277 -104.77526258 28.50198713 -109.68066406 26.10986328 C-111.32919262 25.28451506 -112.9764835 24.45668629 -114.62207031 23.62548828 C-115.77578125 23.04283203 -116.92949219 22.46017578 -118.11816406 21.85986328 C-117.40563477 22.27453857 -116.69310547 22.68921387 -115.95898438 23.11645508 C-108.24677384 27.60941144 -100.54445837 32.11824535 -92.86816406 36.67236328 C-91.72992188 37.33945312 -90.59167969 38.00654297 -89.41894531 38.69384766 C-88.34515625 39.33257812 -87.27136719 39.97130859 -86.16503906 40.62939453 C-84.70855957 41.4894812 -84.70855957 41.4894812 -83.22265625 42.36694336 C-82.52817383 42.85960693 -81.83369141 43.35227051 -81.11816406 43.85986328 C-81.11816406 44.51986328 -81.11816406 45.17986328 -81.11816406 45.85986328 C-84.84466678 46.56236031 -88.57466221 47.24420278 -92.30566406 47.92236328 C-93.36076172 48.12152344 -94.41585937 48.32068359 -95.50292969 48.52587891 C-96.52451172 48.70957031 -97.54609375 48.89326172 -98.59863281 49.08251953 C-99.53602295 49.25533447 -100.47341309 49.42814941 -101.43920898 49.60620117 C-106.69492044 50.10384851 -110.58669006 48.34010974 -115.29394531 46.13720703 C-117.0293457 45.32993164 -117.0293457 45.32993164 -118.79980469 44.50634766 C-120.01014655 43.93680392 -121.22043232 43.36714097 -122.43066406 42.79736328 C-123.66024944 42.22329767 -124.89006497 41.64972478 -126.12011719 41.07666016 C-129.12176549 39.67589095 -132.12097311 38.27013819 -135.11816406 36.85986328 C-132.05699987 38.70030348 -128.9904137 40.53037304 -125.91113281 42.34033203 C-125.16025391 42.78183594 -124.409375 43.22333984 -123.63574219 43.67822266 C-122.86681641 44.13003906 -122.09789062 44.58185547 -121.30566406 45.04736328 C-120.12327148 45.74249023 -120.12327148 45.74249023 -118.91699219 46.45166016 C-116.9841666 47.58792732 -115.05122076 48.72398935 -113.11816406 49.85986328 C-115.34729607 52.08899529 -116.02998838 52.21895714 -119.02954102 52.71362305 C-120.23638298 52.91877281 -120.23638298 52.91877281 -121.46760559 53.12806702 C-122.77383125 53.33755226 -122.77383125 53.33755226 -124.10644531 53.55126953 C-125.44946968 53.77652565 -125.44946968 53.77652565 -126.81962585 54.0063324 C-129.6887716 54.48592055 -132.5596051 54.95437851 -135.43066406 55.42236328 C-138.29055634 55.89640648 -141.15007257 56.37267103 -144.00956726 56.84910583 C-145.7900182 57.14487782 -147.57077978 57.43878739 -149.35188293 57.73060608 C-153.28901024 58.37685326 -157.21284386 59.03813647 -161.11816406 59.85986328 C-160.66578369 59.22242188 -160.21340332 58.58498047 -159.74731445 57.92822266 C-154.86095037 50.70833345 -152.04880186 43.67655936 -149.55566406 35.35986328 C-144.53552498 18.79992396 -137.6819167 4.50353476 -122.25097656 -4.60888672 C-85.77689259 -22.43661854 -36.835859 -11.14817485 0 0 Z " fill="#95C745" transform="translate(186.1181640625,270.14013671875)"/>
<path d="M0 0 C9.49359797 10.41596176 13.52354918 23.47997071 17.72387695 36.63134766 C19.92319968 43.39704175 22.20327142 49.11305168 26.3125 54.9375 C20.38470096 54.31396386 14.51109835 53.55682368 8.62890625 52.59765625 C7.84732651 52.47063828 7.06574677 52.3436203 6.26048279 52.2127533 C4.62761515 51.94601272 2.99497139 51.67789826 1.36254883 51.40844727 C-1.14191069 50.99722332 -3.64802302 50.59726273 -6.15429688 50.19726562 C-7.74750972 49.9355883 -9.34061301 49.67324284 -10.93359375 49.41015625 C-11.68249374 49.2923732 -12.43139374 49.17459015 -13.20298767 49.05323792 C-18.45908806 48.16591194 -18.45908806 48.16591194 -20.6875 45.9375 C-19.6502478 45.35464233 -19.6502478 45.35464233 -18.59204102 44.76000977 C-15.47706569 43.00837689 -12.36351708 41.25422349 -9.25 39.5 C-8.16138672 38.88833984 -7.07277344 38.27667969 -5.95117188 37.64648438 C-4.91669922 37.06318359 -3.88222656 36.47988281 -2.81640625 35.87890625 C-1.85806885 35.33951416 -0.89973145 34.80012207 0.08764648 34.24438477 C2.21164311 33.12221061 2.21164311 33.12221061 3.3125 31.9375 C2.65241943 32.25501221 1.99233887 32.57252441 1.31225586 32.8996582 C-1.70776805 34.35129238 -4.72887294 35.80066318 -7.75 37.25 C-8.78833984 37.74951172 -9.82667969 38.24902344 -10.89648438 38.76367188 C-13.8217684 40.16595088 -16.75225444 41.55620797 -19.6875 42.9375 C-20.40349365 43.27716797 -21.1194873 43.61683594 -21.85717773 43.96679688 C-26.79997255 46.21897603 -30.47094325 45.89977746 -35.6875 44.9375 C-37.05324906 44.71141432 -38.41914747 44.48622985 -39.78515625 44.26171875 C-41.25294959 44.00981699 -42.72039768 43.7558956 -44.1875 43.5 C-44.90671631 43.37802246 -45.62593262 43.25604492 -46.36694336 43.13037109 C-48.15428933 42.80041928 -49.92372834 42.37634319 -51.6875 41.9375 C-52.0175 41.2775 -52.3475 40.6175 -52.6875 39.9375 C-51.43259766 39.20430542 -51.43259766 39.20430542 -50.15234375 38.45629883 C-47.01312533 36.62173544 -43.87483973 34.78558134 -40.73681641 32.94897461 C-39.38517765 32.15818382 -38.03329493 31.36780986 -36.68115234 30.57788086 C-29.6250279 26.45528931 -22.5828654 22.32625935 -15.6875 17.9375 C-17.14410808 18.66580404 -18.60068034 19.39417975 -20.05712891 20.12280273 C-21.42086909 20.80434078 -22.78514762 21.48480245 -24.14990234 22.16430664 C-28.88921567 24.52683345 -33.61278831 26.91806403 -38.328125 29.328125 C-40.65624691 30.51042275 -42.98437191 31.69271441 -45.3125 32.875 C-46.43833496 33.45467529 -47.56416992 34.03435059 -48.72412109 34.6315918 C-50.33407959 35.44623901 -50.33407959 35.44623901 -51.9765625 36.27734375 C-53.41056396 37.01005493 -53.41056396 37.01005493 -54.87353516 37.75756836 C-59.75578496 39.80475848 -63.83708538 40.17517663 -69.015625 39.23046875 C-69.97984375 39.05580078 -70.9440625 38.88113281 -71.9375 38.70117188 C-72.9275 38.51103516 -73.9175 38.32089844 -74.9375 38.125 C-75.94296875 37.94646484 -76.9484375 37.76792969 -77.984375 37.58398438 C-85.4263909 36.1986091 -85.4263909 36.1986091 -87.6875 33.9375 C-72.7363182 25.18425556 -57.74887631 16.4998544 -42.6875 7.9375 C-54.19647724 13.35517546 -65.67046072 18.84335054 -77.125 24.375 C-77.76786957 24.68536194 -78.41073914 24.99572388 -79.0730896 25.31549072 C-86.00515412 28.59189112 -86.00515412 28.59189112 -92.81494141 32.10571289 C-99.4782741 35.06555311 -108.44753335 32.27008116 -115.25 30.9375 C-116.25869141 30.74671875 -117.26738281 30.5559375 -118.30664062 30.359375 C-120.76841515 29.89268789 -123.22851164 29.41861337 -125.6875 28.9375 C-123.09374253 25.99738341 -120.09548593 24.29717977 -116.70703125 22.36328125 C-116.13417892 22.03458542 -115.5613266 21.70588959 -114.97111511 21.36723328 C-113.14995096 20.3236375 -111.32506978 19.28674737 -109.5 18.25 C-108.26081608 17.54145552 -107.02188088 16.83247587 -105.78320312 16.12304688 C-102.75416642 14.38948175 -99.72176125 12.66190794 -96.6875 10.9375 C-97.18451416 11.173479 -97.68152832 11.40945801 -98.19360352 11.65258789 C-98.89412842 11.98508545 -99.59465332 12.31758301 -100.31640625 12.66015625 C-101.09725586 13.03084229 -101.87810547 13.40152832 -102.68261719 13.78344727 C-104.40503637 14.59961451 -106.12835677 15.41388237 -107.85253906 16.22631836 C-111.93291992 18.1497213 -116.00419858 20.08424311 -120.04296875 22.09375 C-120.70417725 22.41722412 -121.36538574 22.74069824 -122.04663086 23.07397461 C-123.83213499 23.94839904 -125.61158721 24.83514984 -127.390625 25.72265625 C-134.61072897 28.3831448 -141.79761069 26.34863028 -149.125 24.9375 C-150.65157227 24.65132813 -150.65157227 24.65132813 -152.20898438 24.359375 C-154.70294 23.89102653 -157.19565593 23.41693373 -159.6875 22.9375 C-155.05141403 18.83822398 -149.78978399 16.10344728 -144.375 13.1875 C-143.44365234 12.68089844 -142.51230469 12.17429687 -141.55273438 11.65234375 C-139.26666393 10.4096593 -136.97824431 9.17154099 -134.6875 7.9375 C-135.24622803 8.18918945 -135.80495605 8.44087891 -136.38061523 8.70019531 C-138.96197382 9.86285904 -141.54348612 11.02518112 -144.125 12.1875 C-145.00349609 12.58324219 -145.88199219 12.97898437 -146.78710938 13.38671875 C-148.5565256 14.18328251 -150.32786827 14.97558034 -152.10107422 15.76367188 C-153.77251063 16.52223958 -155.43182931 17.30837056 -157.07470703 18.12695312 C-166.86859692 22.89871301 -175.68734328 20.45275373 -186.0625 18.5625 C-187.98642578 18.22992188 -187.98642578 18.22992188 -189.94921875 17.890625 C-191.78033203 17.56191406 -191.78033203 17.56191406 -193.6484375 17.2265625 C-195.31592041 16.92806396 -195.31592041 16.92806396 -197.01708984 16.62353516 C-199.6875 15.9375 -199.6875 15.9375 -201.6875 13.9375 C-200.65568604 13.69104736 -199.62387207 13.44459473 -198.56079102 13.19067383 C-194.64386949 12.25385052 -190.72837362 11.31117669 -186.81323242 10.36694336 C-185.13521627 9.96306234 -183.45684317 9.56066074 -181.77807617 9.15991211 C-171.55886388 6.71918325 -161.43665717 4.08914012 -151.37768555 1.05126953 C-146.75869708 -0.34283072 -142.12266377 -1.66826116 -137.4765625 -2.96875 C-134.7233518 -3.76349123 -132.00105376 -4.59497828 -129.2734375 -5.46875 C-91.46873406 -17.30323268 -32.58995103 -29.00944072 0 0 Z " fill="#95C745" transform="translate(459.6875,274.0625)"/>
<path d="M0 0 C2.78828763 1.31997698 5.24324231 2.79529493 7.73046875 4.6171875 C8.79744995 5.39437134 8.79744995 5.39437134 9.88598633 6.18725586 C10.64548584 6.74421143 11.40498535 7.30116699 12.1875 7.875 C13.81984285 9.06184413 15.45266616 10.24802769 17.0859375 11.43359375 C17.91061523 12.03284668 18.73529297 12.63209961 19.58496094 13.24951172 C29.54049969 20.46556639 39.62693438 27.45565736 49.875 34.25 C62.27613842 42.48604808 73.86382277 51.12761203 85 61 C85.56009766 61.4954834 86.12019531 61.9909668 86.69726562 62.50146484 C102.56376684 76.62004069 123.19857796 95.40415546 125.17700195 118.02368164 C125.46418228 128.03609217 125.66610002 136.87067388 121 146 C120.56429687 146.87398437 120.12859375 147.74796875 119.6796875 148.6484375 C116.359885 154.97964554 112.55953665 161.02042086 108.734375 167.0546875 C106.02314559 171.65889239 104.73720681 175.71668452 104 181 C101.42257839 177.73956166 99.37079865 174.30307583 97.3125 170.6953125 C96.79683472 169.79291336 96.79683472 169.79291336 96.27075195 168.87228394 C95.54672654 167.603904 94.82401308 166.33477436 94.10253906 165.06494141 C93.00651681 163.13646647 91.90594964 161.21064274 90.8046875 159.28515625 C87.74206523 153.91418239 84.72305604 148.55398699 82 143 C86.31931387 143.61611835 90.25208775 144.64238578 94.375 146.0625 C95.43460937 146.42472656 96.49421875 146.78695312 97.5859375 147.16015625 C98.38257813 147.43730469 99.17921875 147.71445312 100 148 C99.40574219 147.76514893 98.81148438 147.53029785 98.19921875 147.28833008 C85.30589625 142.05856387 76.65431297 138.28341584 71 125 C70.17330445 123.39240253 69.34111471 121.78760037 68.5 120.1875 C68.005 119.135625 67.51 118.08375 67 117 C77.8679151 119.67243814 88.41101147 123.40643851 99 127 C97.97229492 126.62004883 96.94458984 126.24009766 95.88574219 125.84863281 C60.98381542 112.72744116 60.98381542 112.72744116 53.44042969 97.47753906 C51 91.90224848 51 91.90224848 51 89 C60.71696738 91.74093683 70.14476015 95.23397077 79.625 98.6875 C81.3137104 99.3003829 83.00251176 99.9130152 84.69140625 100.52539062 C88.7953257 102.01403906 92.89799794 103.5060767 97 105 C96.20820847 104.64347099 96.20820847 104.64347099 95.40042114 104.27973938 C92.25850176 102.86485843 89.11666273 101.44981568 85.97607422 100.03198242 C81.09293178 97.82986157 76.2030763 95.64427677 71.30055237 93.48570251 C68.6646952 92.32444024 66.03118576 91.15790464 63.39779663 89.99105835 C62.09357723 89.41485469 60.7882587 88.84113233 59.48184204 88.26992798 C57.62963501 87.45974027 55.78152978 86.64019507 53.93359375 85.8203125 C52.3256897 85.11285889 52.3256897 85.11285889 50.68530273 84.39111328 C46.45193376 82.19802878 44.63401687 79.64080605 42.30078125 75.55078125 C41.81416016 74.70322266 41.32753906 73.85566406 40.82617188 72.98242188 C40.32666016 72.10134766 39.82714844 71.22027344 39.3125 70.3125 C38.80138672 69.41982422 38.29027344 68.52714844 37.76367188 67.60742188 C36.50481142 65.40735735 35.25044404 63.20485553 34 61 C37.79723453 59.73425516 39.05161838 60.49628498 42.76171875 61.87109375 C43.87998047 62.28037109 44.99824219 62.68964844 46.15039062 63.11132812 C47.31763672 63.54896484 48.48488281 63.98660156 49.6875 64.4375 C50.86634766 64.87126953 52.04519531 65.30503906 53.25976562 65.75195312 C56.17630955 66.82646931 59.0894241 67.9094431 62 69 C60.49367221 68.28795712 58.98697277 67.57669329 57.47875977 66.86865234 C56.14123767 66.23924959 54.80583077 65.60533522 53.47241211 64.96728516 C49.93339165 63.29214058 46.41221069 61.74820412 42.72265625 60.43359375 C32.04171645 56.51467883 27.92895268 52.31188785 23 42 C22.17926071 40.59672449 21.34876231 39.19900556 20.5 37.8125 C19 35 19 35 19 33 C19.64066406 33.19335938 20.28132813 33.38671875 20.94140625 33.5859375 C21.80636719 33.84632813 22.67132813 34.10671875 23.5625 34.375 C24.40941406 34.63023437 25.25632812 34.88546875 26.12890625 35.1484375 C29.41272786 36.12241452 32.70536381 37.06332964 36 38 C35.16359985 37.74984131 35.16359985 37.74984131 34.31030273 37.49462891 C18.82809256 32.49133839 11.64560448 24.81719032 4.26928711 10.91650391 C0 2.54457136 0 2.54457136 0 0 Z " fill="#95C745" transform="translate(258,291)"/>
<path d="M0 0 C0.495 0.99 0.495 0.99 1 2 C-0.54272088 6.3135345 -2.70653209 10.34693501 -4.875 14.375 C-5.35104172 15.26188507 -5.35104172 15.26188507 -5.83670044 16.16668701 C-13.42612348 29.84983636 -24.43779936 34.95790998 -39 40 C-32.4 37.69 -25.8 35.38 -19 33 C-18.67 33.66 -18.34 34.32 -18 35 C-20.98855996 43.44578574 -26.24929535 53.42719283 -34.48413086 57.53222656 C-36.99019989 58.56636428 -39.51301065 59.49136148 -42.08935547 60.33496094 C-45.32224148 61.4602333 -48.3482702 62.96515761 -51.4375 64.4375 C-53.29151421 65.29199753 -55.14561975 66.14629712 -57 67 C-50.41695967 65.07751919 -43.93095255 62.97028725 -37.46875 60.671875 C-35 60 -35 60 -33 61 C-36.33067419 71.73498265 -41.28547267 80.37670854 -51.28111267 85.81031799 C-59.89846866 90.15512728 -68.84055064 93.80220857 -77.81689453 97.33203125 C-82.96641894 99.36186676 -87.99544761 101.63706733 -93 104 C-92.33693848 103.75878418 -91.67387695 103.51756836 -90.99072266 103.26904297 C-77.38564421 98.32665569 -63.76397753 93.48252142 -50 89 C-50.27070313 89.66386719 -50.54140625 90.32773437 -50.8203125 91.01171875 C-52.07635696 94.07900008 -52.07635696 94.07900008 -53.1171875 97.64453125 C-57.48995612 108.91261108 -64.99511597 113.17330715 -75.57470703 117.90698242 C-82.98401451 121.10602688 -90.45905304 124.12606002 -98 127 C-90.14154493 124.73362493 -82.46914165 122.08111434 -74.796875 119.25390625 C-73.52070313 118.79564453 -73.52070313 118.79564453 -72.21875 118.328125 C-71.45498047 118.0487207 -70.69121094 117.76931641 -69.90429688 117.48144531 C-68 117 -68 117 -66 118 C-72.1113417 131.07542876 -77.37437041 139.1973591 -91.13330078 144.28417969 C-93.85660689 145.32848174 -96.41362635 146.65728687 -99 148 C-100.33252358 148.66828372 -101.6657057 149.33525875 -103 150 C-102.44014404 149.7827124 -101.88028809 149.5654248 -101.3034668 149.34155273 C-98.76841816 148.36386468 -96.22814032 147.4005586 -93.6875 146.4375 C-92.80642578 146.09525391 -91.92535156 145.75300781 -91.01757812 145.40039062 C-90.17001953 145.08134766 -89.32246094 144.76230469 -88.44921875 144.43359375 C-87.66893311 144.13509521 -86.88864746 143.83659668 -86.0847168 143.52905273 C-84 143 -84 143 -81 144 C-81.45850342 144.80107178 -81.91700684 145.60214355 -82.3894043 146.42749023 C-84.11381163 149.44090565 -85.83770955 152.45461135 -87.5612793 155.46850586 C-88.3029419 156.7651694 -89.04479892 158.06172176 -89.78686523 159.3581543 C-93.90196829 166.54779153 -98.00656801 173.74175795 -102 181 C-102.33 181 -102.66 181 -103 181 C-103.165 179.80375 -103.33 178.6075 -103.5 177.375 C-105.07574178 170.22788549 -109.21900371 164.16765966 -113 158 C-122.19228908 142.99985555 -126.96727748 129.86578261 -123.1640625 112.09375 C-115.79549551 90.13640943 -98.3182239 72.65623542 -81 58 C-80.02289063 57.14535156 -79.04578125 56.29070312 -78.0390625 55.41015625 C-76.94304092 54.4605535 -75.84668544 53.51133599 -74.75 52.5625 C-73.75484375 51.69753906 -72.7596875 50.83257812 -71.734375 49.94140625 C-66.78228277 45.88499556 -61.34297766 42.51099744 -56 39 C-53.77615429 37.51002996 -51.55432186 36.01757022 -49.3359375 34.51953125 C-48.7726474 34.13926285 -48.2093573 33.75899445 -47.6289978 33.36720276 C-45.87694432 32.18336318 -44.12576483 30.99824445 -42.375 29.8125 C-41.76771057 29.40124878 -41.16042114 28.98999756 -40.534729 28.56628418 C-30.82426772 21.98316872 -21.25479703 15.23258286 -11.7890625 8.30126953 C-7.9019057 5.47395706 -3.95436175 2.73228513 0 0 Z " fill="#95C745" transform="translate(253,291)"/>
<path d="M0 0 C0.98162174 3.13214372 0.97277579 5.37280395 0.41088867 8.59399414 C0.18020943 9.95174706 0.18020943 9.95174706 -0.05513 11.33692932 C-0.31594612 12.79630165 -0.31594612 12.79630165 -0.58203125 14.28515625 C-0.75627121 15.29662216 -0.93051117 16.30808807 -1.11003113 17.35020447 C-1.66987656 20.58901742 -2.24107567 23.82571199 -2.8125 27.0625 C-3.18628519 29.21536673 -3.55934017 31.36836039 -3.93164062 33.52148438 C-5.57925215 43.02205858 -7.2657169 52.51485474 -9 62 C-0.81090771 62.77854852 7.32334017 63.18861858 15.546875 63.31640625 C16.68408997 63.33718735 17.82130493 63.35796844 18.99298096 63.37937927 C22.57860043 63.44407274 26.16428472 63.50338154 29.75 63.5625 C32.20052718 63.60576175 34.65104812 63.6493783 37.1015625 63.69335938 C43.06764247 63.7996702 49.03378498 63.90157601 55 64 C55 64.33 55 64.66 55 65 C46.05542175 65.6531917 37.11075967 66.30521994 28.16598797 66.95575714 C24.01271616 67.25785402 19.85947451 67.56035374 15.70629883 67.86376953 C11.69933108 68.15648908 7.69228801 68.44815642 3.6851902 68.73908997 C2.15533523 68.85035113 0.62550793 68.96199338 -0.90429115 69.07402039 C-3.04460224 69.23069011 -5.1850071 69.38601273 -7.32543945 69.54101562 C-8.54455521 69.62984009 -9.76367096 69.71866455 -11.01972961 69.81018066 C-13.0101239 69.93695283 -15.00557262 70 -17 70 C-14.4060437 55.33543761 -10.52123317 40.97508254 -6.8125 26.5625 C-6.15089112 23.98132438 -5.49052356 21.39983316 -4.83007812 18.81835938 C-3.22415798 12.54451463 -1.61383878 6.2718122 0 0 Z " fill="#6FAB29" transform="translate(365,142)"/>
<path d="M0 0 C1.87331836 3.35406798 2.78186769 6.66609088 3.69580078 10.38916016 C3.85214996 11.02051376 4.00849915 11.65186737 4.16958618 12.30235291 C4.68283653 14.38013659 5.18919887 16.45952994 5.6953125 18.5390625 C6.05082654 19.98595676 6.40669716 21.43276344 6.76290894 22.87948608 C7.50717503 25.90657017 8.24823113 28.93441555 8.98681641 31.96289062 C9.93471368 35.84918788 10.8888708 39.73391352 11.84520149 43.61814308 C12.57968759 46.60302085 13.3117422 49.58849043 14.04296494 52.57416916 C14.39408256 54.00727191 14.74575813 55.44023807 15.09799576 56.87306595 C15.58867371 58.87135565 16.07628504 60.87036795 16.56298828 62.86962891 C16.84119415 64.00784088 17.11940002 65.14605286 17.40603638 66.3187561 C18 69 18 69 18 71 C-5.43 69.35 -28.86 67.7 -53 66 C-53 65.67 -53 65.34 -53 65 C-31.88 64.67 -10.76 64.34 11 64 C10.01 60.04 9.02 56.08 8 52 C7.28068741 48.32649038 6.59255177 44.66377322 5.95703125 40.9765625 C5.78370773 39.98675385 5.61038422 38.99694519 5.43180847 37.97714233 C5.07091671 35.90880841 4.71223479 33.84008774 4.35571289 31.77099609 C3.80997491 28.61037606 3.25403483 25.45166205 2.69726562 22.29296875 C2.34574276 20.27093953 1.99481021 18.24880757 1.64453125 16.2265625 C1.47895218 15.28898102 1.31337311 14.35139954 1.14277649 13.38540649 C0.37166794 8.86702262 -0.20047164 4.6046574 0 0 Z " fill="#6FAB29" transform="translate(146,141)"/>
<path d="M0 0 C0 4.12759197 -1.67301245 5.4240249 -4.25 8.625 C-8.30195424 13.73991739 -12.14400929 18.95923286 -15.875 24.3125 C-20.04436582 30.26970728 -24.28057658 36.1689795 -28.625 42 C-29.13401855 42.68876221 -29.64303711 43.37752441 -30.16748047 44.0871582 C-33.76117644 48.88058822 -33.76117644 48.88058822 -36 50 C-36.71542969 48.98164062 -37.43085938 47.96328125 -38.16796875 46.9140625 C-48.57286109 32.12537407 -59.06866626 17.40563362 -70 3 C-69.67 2.34 -69.34 1.68 -69 1 C-63.1848151 7.2765148 -57.60336142 13.64153029 -52.2265625 20.30078125 C-49.28621509 23.86530767 -46.19636641 27.27929759 -43.0859375 30.6953125 C-40.32633903 33.74430706 -37.65928666 36.86340547 -35 40 C-28.47542611 33.05591036 -22.13053163 26.06598403 -16.16015625 18.6328125 C-13.22902387 15.06032927 -10.13032866 11.65416562 -7.01953125 8.23828125 C-4.59747853 5.55387852 -2.28517492 2.80118216 0 0 Z " fill="#6FAB29" transform="translate(291,60)"/>
<path d="M0 0 C0.66 0.33 1.32 0.66 2 1 C1.37770508 1.36125977 0.75541016 1.72251953 0.11425781 2.09472656 C-2.84134727 3.81168908 -5.7958304 5.53056876 -8.75 7.25 C-9.82717285 7.87664551 -10.9043457 8.50329102 -12.01416016 9.14892578 C-20.03810453 13.82788908 -28.01228951 18.58354672 -35.92871094 23.44238281 C-36.7024707 23.91256836 -37.47623047 24.38275391 -38.2734375 24.8671875 C-38.94810059 25.28081543 -39.62276367 25.69444336 -40.31787109 26.12060547 C-42 27 -42 27 -44 27 C-41.19403303 32.61193394 -37.60179312 36.80990939 -33.3515625 41.40625 C-30.47638945 44.57753722 -27.84332514 47.90077962 -25.1953125 51.26171875 C-20.91268174 56.60357669 -16.44194789 61.79050965 -12 67 C-12.33 67.66 -12.66 68.32 -13 69 C-15.69181275 66.337658 -18.37762147 63.66933333 -21.0625 61 C-21.81466797 60.25621094 -22.56683594 59.51242187 -23.34179688 58.74609375 C-26.85904004 55.24407675 -30.29477705 51.72548362 -33.53125 47.9609375 C-37.94044776 42.83286953 -42.80557917 38.18039803 -47.65429688 33.47265625 C-48.34458984 32.79332031 -49.03488281 32.11398437 -49.74609375 31.4140625 C-50.37185303 30.8051416 -50.9976123 30.1962207 -51.64233398 29.56884766 C-53 28 -53 28 -53 26 C-36.71016428 17.79647263 -20.38280917 9.69977115 -3.89404297 1.90112305 C-2.58969461 1.28055721 -1.29195251 0.64597625 0 0 Z " fill="#6FAB29" transform="translate(416,281)"/>
<path d="M0 0 C5.224836 1.57276631 9.95843459 3.80753116 14.8359375 6.2109375 C15.67412018 6.62034576 16.51230286 7.02975403 17.37588501 7.4515686 C20.0439867 8.75587803 22.7094955 10.06539251 25.375 11.375 C27.15868989 12.24773167 28.94254252 13.1201308 30.7265625 13.9921875 C38.16605961 17.63192426 45.59620593 21.28809357 53 25 C51.42983745 28.31212097 49.74784314 30.47577092 47.11328125 33.046875 C45.9521582 34.1915625 45.9521582 34.1915625 44.76757812 35.359375 C43.95740234 36.14828125 43.14722656 36.9371875 42.3125 37.75 C37.23129196 42.71939662 32.29721959 47.707514 27.66821289 53.10253906 C24.93846992 56.20740696 22.00651989 59.0999207 19.0625 62 C18.47404297 62.58394531 17.88558594 63.16789062 17.27929688 63.76953125 C15.85520207 65.18204805 14.4279475 66.5913781 13 68 C13 63.64750605 15.67026155 61.58955058 18.4375 58.5 C19.55040486 57.22997724 20.66237633 55.959136 21.7734375 54.6875 C22.32483398 54.05972656 22.87623047 53.43195313 23.44433594 52.78515625 C30.97219063 44.14678941 37.94915027 35.02772349 45 26 C44.45448486 25.89816406 43.90896973 25.79632813 43.34692383 25.69140625 C40.4198792 24.8290958 38.08783997 23.47237995 35.44921875 21.9375 C34.36431152 21.30924316 33.2794043 20.68098633 32.16162109 20.03369141 C31.00343023 19.35605143 29.84539244 18.67814977 28.6875 18 C27.51138734 17.31532292 26.33511734 16.63091602 25.15869141 15.94677734 C21.76794832 13.97219093 18.38348347 11.9870022 15 10 C14.1136084 9.48083008 13.2272168 8.96166016 12.31396484 8.42675781 C10.16419144 7.16521414 8.0182308 5.89761912 5.875 4.625 C5.26100342 4.26277344 4.64700684 3.90054687 4.0144043 3.52734375 C2.65848358 2.71383151 1.32568146 1.86191171 0 1 C0 0.67 0 0.34 0 0 Z " fill="#6FAB29" transform="translate(96,282)"/>
<path d="M0 0 C0 4.00754519 -1.96315707 5.83626809 -4.375 8.8125 C-5.30151748 9.98537186 -6.2259341 11.15990582 -7.1484375 12.3359375 C-7.6237793 12.94147461 -8.09912109 13.54701172 -8.58886719 14.17089844 C-10.80191468 17.03943682 -12.90607134 19.98138996 -15 22.9375 C-15.40444336 23.50782959 -15.80888672 24.07815918 -16.22558594 24.66577148 C-17.05304297 25.8341866 -17.87986019 27.00305507 -18.70605469 28.17236328 C-21.00138567 31.41441003 -23.31437827 34.64384308 -25.625 37.875 C-26.47142776 39.05984327 -27.31778903 40.24473403 -28.1640625 41.4296875 C-28.76992188 42.27789062 -29.37578125 43.12609375 -30 44 C-33.26294757 42.91235081 -33.62169918 42.51148783 -35.4609375 39.81640625 C-35.92628906 39.14448242 -36.39164063 38.47255859 -36.87109375 37.78027344 C-37.36738281 37.0484082 -37.86367187 36.31654297 -38.375 35.5625 C-39.44431588 34.0162374 -40.5146651 32.470689 -41.5859375 30.92578125 C-42.14249023 30.11963379 -42.69904297 29.31348633 -43.27246094 28.48291016 C-46.13365107 24.37065696 -49.06484769 20.30963692 -52 16.25 C-52.80896729 15.12573608 -52.80896729 15.12573608 -53.63427734 13.97875977 C-56.33387129 10.24082782 -59.07735261 6.5690021 -62 3 C-61.67 2.34 -61.34 1.68 -61 1 C-55.19113914 7.26968907 -49.61158519 13.62459752 -44.24609375 20.28125 C-41.20079532 23.96738515 -37.98972108 27.4885839 -34.75 31.00390625 C-33 33 -33 33 -32 35 C-31.34 35 -30.68 35 -30 35 C-28.58561594 33.42713316 -27.24395599 31.78860004 -25.9375 30.125 C-22.88974135 26.31164438 -19.79499659 22.60191191 -16.5 19 C-12.47273726 14.58414173 -8.68646422 10.00733447 -4.9453125 5.34765625 C-3.37139584 3.44821064 -1.78331404 1.69919545 0 0 Z " fill="#70AB29" transform="translate(287,155)"/>
<path d="M0 0 C0.33 0 0.66 0 1 0 C0.49125808 9.09485826 -0.91083464 17.90390952 -2.58398438 26.83959961 C-3.00499972 29.08921503 -3.41721567 31.34031562 -3.828125 33.59179688 C-5.84178278 44.52534835 -5.84178278 44.52534835 -7 48 C7.85 48.33 22.7 48.66 38 49 C38 49.33 38 49.66 38 50 C32.6476482 50.43282334 27.2948739 50.8598329 21.94165039 51.28173828 C20.12512057 51.42569517 18.30871026 51.57116931 16.49243164 51.71826172 C-2.86546077 53.28393445 -2.86546077 53.28393445 -12 53 C-10.27332483 41.96992041 -7.48690731 31.15727728 -4.875 20.3125 C-4.40207027 18.33925823 -3.92941168 16.36595146 -3.45703125 14.39257812 C-2.3078146 9.59429633 -1.15492389 4.79691114 0 0 Z " fill="#70AC2A" transform="translate(330,184)"/>
<path d="M0 0 C5.06485059 1.52239435 9.59188636 3.67322912 14.28515625 6.0625 C15.06386581 6.45445557 15.84257538 6.84641113 16.6448822 7.25024414 C19.11936781 8.49634804 21.59109887 9.74779129 24.0625 11 C26.53781434 12.2515066 29.01371654 13.50181281 31.49082947 14.74975586 C33.02789788 15.52437536 34.56389219 16.30113099 36.09864807 17.08032227 C39.68138397 18.88837954 43.23649609 20.58932075 47 22 C45.41060574 25.93214301 42.83657498 28.33020346 39.8125 31.25 C36.58569298 34.40157059 33.42181337 37.55922707 30.5 41 C25.98275056 46.30141743 20.9614024 51.11934375 16 56 C16 51.62606279 18.71825119 49.54131986 21.5 46.4375 C22.60397192 45.17675003 23.7068322 43.91502581 24.80859375 42.65234375 C25.62432861 41.72204346 25.62432861 41.72204346 26.45654297 40.77294922 C33.70529274 32.52722556 33.70529274 32.52722556 39 23 C38.28610107 22.7328418 37.57220215 22.46568359 36.83666992 22.19042969 C33.93365868 20.97215937 31.32699066 19.54720542 28.61328125 17.953125 C27.59169922 17.355 26.57011719 16.756875 25.51757812 16.140625 C24.45990234 15.51671875 23.40222656 14.8928125 22.3125 14.25 C21.27416016 13.6415625 20.23582031 13.033125 19.16601562 12.40625 C16.10664747 10.61090919 13.0530566 8.8060475 10 7 C8.5157251 6.13084961 8.5157251 6.13084961 7.00146484 5.24414062 C5.62982178 4.43493164 5.62982178 4.43493164 4.23046875 3.609375 C3.41344482 3.12952148 2.5964209 2.64966797 1.75463867 2.15527344 C1.17560791 1.7740332 0.59657715 1.39279297 0 1 C0 0.67 0 0.34 0 0 Z " fill="#6FAB29" transform="translate(66,291)"/>
<path d="M0 0 C0.33 0 0.66 0 1 0 C2.71375113 7.06468876 4.42220732 14.1306426 6.12695312 21.19750977 C6.70775878 23.60242848 7.289785 26.00705276 7.87304688 28.41137695 C8.71022944 31.86333126 9.54304567 35.31631369 10.375 38.76953125 C10.63748535 39.84773636 10.8999707 40.92594147 11.17041016 42.03681946 C11.41065918 43.03763046 11.6509082 44.03844147 11.8984375 45.06958008 C12.11161621 45.95116287 12.32479492 46.83274567 12.54443359 47.74104309 C13 50 13 50 13 53 C6.38694338 53.08267004 -0.1351927 52.86909237 -6.7265625 52.34375 C-7.60025482 52.27716187 -8.47394714 52.21057373 -9.37411499 52.14196777 C-12.12469668 51.93152493 -14.87483869 51.7158599 -17.625 51.5 C-19.50648366 51.3551209 -21.38799391 51.21058661 -23.26953125 51.06640625 C-27.84667068 50.71491653 -32.42342394 50.35874759 -37 50 C-37 49.67 -37 49.34 -37 49 C-14.725 48.505 -14.725 48.505 8 48 C5.3947017 34.27787646 5.3947017 34.27787646 2.734375 20.56640625 C2.48300781 19.28733398 2.48300781 19.28733398 2.2265625 17.98242188 C1.89716166 16.30976763 1.56355705 14.63793774 1.2265625 12.96679688 C0.37003169 8.57197805 -0.20506379 4.50407957 0 0 Z " fill="#70AC2A" transform="translate(181,184)"/>
<path d="M0 0 C0.66 0.33 1.32 0.66 2 1 C-1.62515533 3.1510338 -5.2506622 5.3014736 -8.87646484 7.45141602 C-10.10409542 8.17945182 -11.33163775 8.90763646 -12.55908203 9.63598633 C-20.68628305 14.45839185 -28.82967529 19.25088137 -37 24 C-34.21932527 28.33629696 -31.18544478 32.29068373 -27.8125 36.1875 C-26.84299039 37.31966246 -25.87425404 38.4524875 -24.90625 39.5859375 C-24.18115234 40.43430176 -24.18115234 40.43430176 -23.44140625 41.29980469 C-19.89721393 45.4803188 -16.45369812 49.74470281 -13 54 C-13.33 54.66 -13.66 55.32 -14 56 C-29.20252499 40.98805632 -29.20252499 40.98805632 -34.4375 34.78515625 C-37.44366039 31.350618 -40.73612564 28.187576 -44 25 C-42.95936617 21.78531162 -41.9301692 20.95717248 -38.99414062 19.15649414 C-37.72093843 18.52036736 -36.44112206 17.89736936 -35.15625 17.28515625 C-34.47252319 16.94753769 -33.78879639 16.60991913 -33.08435059 16.2620697 C-30.89495206 15.18412985 -28.69784104 14.1231029 -26.5 13.0625 C-25.05153647 12.35332941 -23.60361342 11.64305377 -22.15625 10.93164062 C-19.36993803 9.56325168 -16.5792461 8.20447791 -13.78515625 6.85205078 C-9.74661475 4.89052764 -5.76486021 2.82417582 -1.80273438 0.71264648 C-1.20783203 0.47747314 -0.61292969 0.2422998 0 0 Z " fill="#6FAB29" transform="translate(444,291)"/>
<path d="M0 0 C0.66 0.33 1.32 0.66 2 1 C1.26362305 1.43868408 0.52724609 1.87736816 -0.23144531 2.3293457 C-2.97584949 3.9657324 -5.71903599 5.60413652 -8.46142578 7.24389648 C-9.64616643 7.95173293 -10.8313821 8.65877497 -12.01708984 9.36499023 C-13.72619802 10.38313654 -15.43343243 11.40442616 -17.140625 12.42578125 C-18.16704102 13.03848877 -19.19345703 13.65119629 -20.25097656 14.2824707 C-22.60621796 15.75397366 -24.81350825 17.29151743 -27 19 C-19.60421554 28.57957909 -11.94770396 37.87331727 -4 47 C-4.33 47.66 -4.66 48.32 -5 49 C-5.41660889 48.55309814 -5.83321777 48.10619629 -6.26245117 47.64575195 C-15.34005471 37.92090395 -24.52017197 28.33373479 -34 19 C-33 16 -33 16 -29.88891602 14.17480469 C-28.51595257 13.49618064 -27.13714908 12.82929307 -25.75390625 12.171875 C-24.66443947 11.64197968 -24.66443947 11.64197968 -23.55296326 11.10137939 C-22.01612313 10.35692363 -20.47682337 9.61752747 -18.93530273 8.8828125 C-16.56917257 7.75318559 -14.21303898 6.60448667 -11.85742188 5.453125 C-10.36514141 4.73321702 -8.8723203 4.01442844 -7.37890625 3.296875 C-6.67053116 2.95114441 -5.96215607 2.60541382 -5.23231506 2.24920654 C-3.51600245 1.43786402 -1.76049186 0.71040416 0 0 Z " fill="#70AB29" transform="translate(362,284)"/>
<path d="M0 0 C4.52123544 1.40272684 8.67502157 3.1869574 12.9296875 5.2578125 C13.56488312 5.56572723 14.20007874 5.87364197 14.85452271 6.19088745 C16.86303749 7.16549367 18.86903741 8.14515331 20.875 9.125 C22.24462801 9.79070141 23.61441815 10.45606933 24.984375 11.12109375 C28.32479994 12.74354458 31.66299047 14.37053387 35 16 C35 20 35 20 33.25585938 22.19824219 C32.45986328 22.97329102 31.66386719 23.74833984 30.84375 24.546875 C29.98652344 25.39121094 29.12929687 26.23554688 28.24609375 27.10546875 C27.33988281 27.97816406 26.43367188 28.85085938 25.5 29.75 C24.59378906 30.63816406 23.68757813 31.52632813 22.75390625 32.44140625 C20.51128384 34.63681556 18.25987232 36.82237387 16 39 C15.34 38.67 14.68 38.34 14 38 C15.74972112 35.77061395 17.49976805 33.54148496 19.25 31.3125 C19.74113281 30.68666016 20.23226562 30.06082031 20.73828125 29.41601562 C23.47559587 25.93050167 26.22493308 22.45561905 29 19 C21.73327889 14.03890521 14.25267666 9.51815784 6.66992188 5.06054688 C5.80818359 4.54943359 4.94644531 4.03832031 4.05859375 3.51171875 C3.27798584 3.05240967 2.49737793 2.59310059 1.69311523 2.11987305 C1.13438721 1.75031494 0.57565918 1.38075684 0 1 C0 0.67 0 0.34 0 0 Z " fill="#70AB29" transform="translate(148,284)"/>
<path d="M0 0 C0.33 0 0.66 0 1 0 C0.45076707 8.17188927 -0.8429931 16.04732091 -2.5 24.0625 C-2.72558594 25.18849609 -2.95117188 26.31449219 -3.18359375 27.47460938 C-4.8590663 35.7181326 -4.8590663 35.7181326 -6 38 C3.57 38 13.14 38 23 38 C23 38.33 23 38.66 23 39 C18.62561293 39.50546083 14.25040173 40.00340532 9.875 40.5 C8.6375 40.64308594 7.4 40.78617188 6.125 40.93359375 C4.32675781 41.13662109 4.32675781 41.13662109 2.4921875 41.34375 C1.39245605 41.46943359 0.29272461 41.59511719 -0.84033203 41.72460938 C-3.91231845 41.99235784 -6.91822819 42.04872366 -10 42 C-9.54216463 35.36138713 -8.08701915 29.43147596 -6.1875 23.0625 C-4.76685391 18.27869174 -3.51042899 13.45303807 -2.25 8.625 C-1.91597168 7.34810303 -1.91597168 7.34810303 -1.57519531 6.04541016 C-1.04887446 4.03060105 -0.52424864 2.01534928 0 0 Z " fill="#6FAB29" transform="translate(419,119)"/>
<path d="M0 0 C1.46994646 2.74078129 2.43377217 5.28503519 3.1484375 8.30859375 C3.34735596 9.13222412 3.54627441 9.95585449 3.7512207 10.80444336 C3.95706787 11.67335205 4.16291504 12.54226074 4.375 13.4375 C6.088424 20.52499028 7.97199261 27.45836541 10.30078125 34.37109375 C11.009066 37.03408614 11.13434183 39.25843163 11 42 C-0.06660956 41.4340092 -11.00830029 40.40116964 -22 39 C-22 38.67 -22 38.34 -22 38 C-12.43 38 -2.86 38 7 38 C6.01 34.04 5.02 30.08 4 26 C3.23855584 22.35576392 2.50205176 18.71953908 1.8125 15.0625 C1.63525391 14.15693359 1.45800781 13.25136719 1.27539062 12.31835938 C1.10845703 11.44115234 0.94152344 10.56394531 0.76953125 9.66015625 C0.62104736 8.88293213 0.47256348 8.10570801 0.31958008 7.30493164 C-0.02177387 4.84295864 -0.0540545 2.48239105 0 0 Z " fill="#72AD2B" transform="translate(92,119)"/>
<path d="M0 0 C0.33 0 0.66 0 1 0 C0.51634918 10.54358778 -1.85587493 20.69436662 -4 31 C6.56 31 17.12 31 28 31 C28 31.33 28 31.66 28 32 C23.50077152 32.50710729 19.00051028 33.00440809 14.5 33.5 C13.2315625 33.64308594 11.963125 33.78617187 10.65625 33.93359375 C4.40044504 34.61782242 -1.70625337 35.19071959 -8 35 C-7.5630538 25.96977859 -5.15084471 17.72610996 -2.61767578 9.10400391 C-1.72818736 6.07411804 -0.86484147 3.03700144 0 0 Z " fill="#6FAB29" transform="translate(298,226)"/>
<path d="M0 0 C0.66 0.33 1.32 0.66 2 1 C-1.91190433 3.32062878 -5.83029462 5.63007618 -9.75 7.9375 C-10.86117188 8.59685547 -11.97234375 9.25621094 -13.1171875 9.93554688 C-14.18710937 10.56396484 -15.25703125 11.19238281 -16.359375 11.83984375 C-17.34389648 12.42113037 -18.32841797 13.00241699 -19.34277344 13.60131836 C-21.62653993 14.8034222 -23.48091927 15.53747169 -26 16 C-22.94655525 20.81732788 -19.49686463 25.08134412 -15.75 29.375 C-15.19570313 30.01566406 -14.64140625 30.65632813 -14.0703125 31.31640625 C-12.71656081 32.88022286 -11.35870253 34.44048294 -10 36 C-10.33 36.66 -10.66 37.32 -11 38 C-13.99707817 35.05226582 -16.98760494 32.09808792 -19.97216797 29.13769531 C-20.98893399 28.13100272 -22.00748562 27.12611034 -23.02783203 26.12304688 C-24.49201218 24.68305629 -25.94970205 23.23676744 -27.40625 21.7890625 C-28.28603516 20.91975098 -29.16582031 20.05043945 -30.07226562 19.15478516 C-32 17 -32 17 -32 15 C-31.17274414 14.61666504 -30.34548828 14.23333008 -29.49316406 13.83837891 C-26.41416661 12.41128391 -23.33541843 10.98365387 -20.25683594 9.55566406 C-18.92620584 8.9385884 -17.59547773 8.32172406 -16.26464844 7.70507812 C-14.34804682 6.81696676 -12.43180292 5.92808758 -10.515625 5.0390625 C-9.36352539 4.50490723 -8.21142578 3.97075195 -7.02441406 3.42041016 C-5.23169189 2.57846169 -3.45408978 1.70041513 -1.71777344 0.74755859 C-0.86747559 0.37751709 -0.86747559 0.37751709 0 0 Z " fill="#6FAB29" transform="translate(465,304)"/>
<path d="M0 0 C0.66 0.33 1.32 0.66 2 1 C1.27296875 1.41362793 0.5459375 1.82725586 -0.203125 2.25341797 C-2.89018407 3.78685024 -5.57330486 5.32689308 -8.25390625 6.87158203 C-9.98921287 7.86880102 -11.72897343 8.85825629 -13.46875 9.84765625 C-14.5515625 10.47285156 -15.634375 11.09804688 -16.75 11.7421875 C-17.75546875 12.3182373 -18.7609375 12.89428711 -19.796875 13.48779297 C-20.52390625 13.98682129 -21.2509375 14.48584961 -22 15 C-22 18.20381657 -19.88922128 19.77774682 -17.875 22.1875 C-17.05902344 23.1671875 -16.24304688 24.146875 -15.40234375 25.15625 C-12.61791992 28.45228342 -9.82585388 31.73939937 -7 35 C-7.33 35.66 -7.66 36.32 -8 37 C-14.93 30.07 -21.86 23.14 -29 16 C-28 13 -28 13 -25.74682617 11.68139648 C-24.77205322 11.24899658 -23.79728027 10.81659668 -22.79296875 10.37109375 C-21.73142578 9.89349609 -20.66988281 9.41589844 -19.57617188 8.92382812 C-18.45791016 8.43333984 -17.33964844 7.94285156 -16.1875 7.4375 C-13.99334666 6.45735113 -11.79933068 5.4768947 -9.60546875 4.49609375 C-8.62731201 4.06482178 -7.64915527 3.6335498 -6.64135742 3.18920898 C-4.037887 2.05827426 -4.037887 2.05827426 -1.7746582 0.78149414 C-1.189021 0.52360107 -0.60338379 0.26570801 0 0 Z " fill="#6FAB29" transform="translate(324,281)"/>
<path d="M0 0 C0.66 0.33 1.32 0.66 2 1 C-5.26 5.29 -12.52 9.58 -20 14 C-20.33 13.34 -20.66 12.68 -21 12 C-18.92660359 9.7512576 -17.02167356 8.33076735 -14.27734375 6.9921875 C-13.57416016 6.64542969 -12.87097656 6.29867188 -12.14648438 5.94140625 C-11.41751953 5.58949219 -10.68855469 5.23757813 -9.9375 4.875 C-9.20466797 4.51535156 -8.47183594 4.15570313 -7.71679688 3.78515625 C-5.81357954 2.85189816 -3.90700696 1.92548978 -2 1 C-1.34 0.67 -0.68 0.34 0 0 Z " fill="#77B02E" transform="translate(444,291)"/>
<path d="M0 0 C0.33 0 0.66 0 1 0 C0.45298368 7.44230094 -0.54198409 14.68160944 -2 22 C-2.99 21.67 -3.98 21.34 -5 21 C-3.68882339 13.88879511 -1.98279484 6.95300057 0 0 Z " fill="#76B02E" transform="translate(298,226)"/>
<path d="M0 0 C1.48663983 2.75545698 2.4150229 5.27010688 3.0703125 8.328125 C3.33134766 9.52695313 3.33134766 9.52695313 3.59765625 10.75 C3.77167969 11.575 3.94570312 12.4 4.125 13.25 C4.30675781 14.09046875 4.48851562 14.9309375 4.67578125 15.796875 C5.12199541 17.86355111 5.56164445 19.93164277 6 22 C5.01 22 4.02 22 3 22 C2.49311395 19.45953542 1.99433126 16.91791124 1.5 14.375 C1.35691406 13.66214844 1.21382812 12.94929687 1.06640625 12.21484375 C0.26950574 8.07855065 -0.16034056 4.23566321 0 0 Z " fill="#77B12E" transform="translate(146,141)"/>
<path d="M0 0 C-6.27 3.63 -12.54 7.26 -19 11 C-19.33 10.34 -19.66 9.68 -20 9 C-18.22694111 5.45388222 -14.04429398 4.43318883 -10.5625 2.8125 C-9.77294922 2.43158203 -8.98339844 2.05066406 -8.16992188 1.65820312 C-7.03586914 1.12549805 -7.03586914 1.12549805 -5.87890625 0.58203125 C-4.83585327 0.09053589 -4.83585327 0.09053589 -3.77172852 -0.41088867 C-2 -1 -2 -1 0 0 Z " fill="#76B02E" transform="translate(326,282)"/>
<path d="M0 0 C0.33 0 0.66 0 1 0 C0.48462048 7.13393752 -0.44005901 14.01812817 -2 21 C-2.99 21.33 -3.98 21.66 -5 22 C-3.60695059 14.59225491 -1.88100377 7.29829463 0 0 Z " fill="#79B231" transform="translate(419,119)"/>
<path d="M0 0 C-6.27 3.63 -12.54 7.26 -19 11 C-19.33 10.34 -19.66 9.68 -20 9 C-18.22694111 5.45388222 -14.04429398 4.43318883 -10.5625 2.8125 C-9.77294922 2.43158203 -8.98339844 2.05066406 -8.16992188 1.65820312 C-7.03586914 1.12549805 -7.03586914 1.12549805 -5.87890625 0.58203125 C-4.83585327 0.09053589 -4.83585327 0.09053589 -3.77172852 -0.41088867 C-2 -1 -2 -1 0 0 Z " fill="#78B12F" transform="translate(467,305)"/>
<path d="M0 0 C4.35970831 1.34849837 8.31341438 3.04907846 12.375 5.125 C13.43460938 5.66382813 14.49421875 6.20265625 15.5859375 6.7578125 C16.38257812 7.16773438 17.17921875 7.57765625 18 8 C17.67 8.99 17.34 9.98 17 11 C14.16317601 9.36012756 11.33115748 7.71213309 8.5 6.0625 C7.68917969 5.59392578 6.87835938 5.12535156 6.04296875 4.64257812 C5.27597656 4.19462891 4.50898437 3.74667969 3.71875 3.28515625 C3.00654297 2.87144775 2.29433594 2.45773926 1.56054688 2.03149414 C1.04556641 1.69110107 0.53058594 1.35070801 0 1 C0 0.67 0 0.34 0 0 Z " fill="#79B230" transform="translate(66,291)"/>
<path d="M0 0 C4.21775732 1.35525536 8.29421322 2.90200114 12.375 4.625 C13.96441406 5.29402344 13.96441406 5.29402344 15.5859375 5.9765625 C16.38257813 6.31429688 17.17921875 6.65203125 18 7 C14.67118282 8.10960573 14.12635748 7.9412896 10.98828125 6.78515625 C10.23095703 6.51123047 9.47363281 6.23730469 8.69335938 5.95507812 C7.90767578 5.66052734 7.12199219 5.36597656 6.3125 5.0625 C5.51521484 4.77181641 4.71792969 4.48113281 3.89648438 4.18164062 C1.92798243 3.46260698 -0.03641812 2.73236297 -2 2 C-1.34 1.34 -0.68 0.68 0 0 Z " fill="#78B230" transform="translate(340,389)"/>
<path d="M0 0 C1.3357457 3.77371512 0.72408671 6.85831347 0.0625 10.75 C-0.13214844 11.92046875 -0.32679688 13.0909375 -0.52734375 14.296875 C-0.68332031 15.18890625 -0.83929688 16.0809375 -1 17 C-1.99 17.33 -2.98 17.66 -4 18 C-2.9611908 11.8887076 -1.84269722 5.92295536 0 0 Z " fill="#77B12F" transform="translate(365,142)"/>
</svg>
